<svg width="16" height="16" viewBox="0 0 16 16" fill="none" xmlns="http://www.w3.org/2000/svg">
<g id="Alarm" clip-path="url(#clip0_436_869)">
<g id="Layer 2">
<path id="Vector" d="M8 14.5C7.46957 14.5 6.96086 14.2893 6.58579 13.9142C6.21071 13.5391 6 13.0304 6 12.5C6 12.3674 6.05268 12.2402 6.14645 12.1464C6.24021 12.0527 6.36739 12 6.5 12H9.5C9.63261 12 9.75979 12.0527 9.85355 12.1464C9.94732 12.2402 10 12.3674 10 12.5C10 13.0304 9.78929 13.5391 9.41421 13.9142C9.03914 14.2893 8.53043 14.5 8 14.5ZM7.135 13C7.22291 13.1515 7.34908 13.2773 7.50089 13.3648C7.6527 13.4522 7.82481 13.4982 8 13.4982C8.17519 13.4982 8.3473 13.4522 8.49911 13.3648C8.65092 13.2773 8.77709 13.1515 8.865 13H7.135Z" fill="#414141"/>
<path id="Vector_2" d="M9 3.5H7C6.86739 3.5 6.74021 3.44732 6.64645 3.35355C6.55268 3.25979 6.5 3.13261 6.5 3C6.5 2.60218 6.65804 2.22064 6.93934 1.93934C7.22064 1.65804 7.60218 1.5 8 1.5C8.39782 1.5 8.77936 1.65804 9.06066 1.93934C9.34196 2.22064 9.5 2.60218 9.5 3C9.5 3.13261 9.44732 3.25979 9.35355 3.35355C9.25979 3.44732 9.13261 3.5 9 3.5Z" fill="#414141"/>
<path id="Vector_3" d="M13.5 13H2.5C2.36739 13 2.24022 12.9473 2.14645 12.8536C2.05268 12.7598 2 12.6326 2 12.5C1.99956 11.9353 2.13575 11.3789 2.39695 10.8783C2.65815 10.3777 3.0366 9.94767 3.5 9.625V7C3.49997 5.81171 3.96996 4.67164 4.8074 3.82858C5.64483 2.98552 6.78173 2.50792 7.97 2.5H8.025C9.21847 2.5 10.3631 2.97411 11.207 3.81802C12.0509 4.66193 12.525 5.80653 12.525 7V9.625C12.9838 9.95043 13.3574 10.3816 13.6141 10.8821C13.8709 11.3826 14.0033 11.9375 14 12.5C14 12.6326 13.9473 12.7598 13.8536 12.8536C13.7598 12.9473 13.6326 13 13.5 13ZM3.05 12H12.95C12.8792 11.6534 12.7356 11.3257 12.5287 11.0387C12.3219 10.7517 12.0564 10.5118 11.75 10.335C11.6737 10.2909 11.6104 10.2275 11.5665 10.1511C11.5226 10.0747 11.4997 9.9881 11.5 9.9V7C11.5 6.07174 11.1313 5.1815 10.4749 4.52513C9.8185 3.86875 8.92826 3.5 8 3.5C7.07174 3.5 6.1815 3.86875 5.52513 4.52513C4.86875 5.1815 4.5 6.07174 4.5 7V9.9C4.50035 9.9881 4.47741 10.0747 4.43351 10.1511C4.38961 10.2275 4.3263 10.2909 4.25 10.335C3.94355 10.5118 3.67813 10.7517 3.47127 11.0387C3.2644 11.3257 3.12082 11.6534 3.05 12Z" fill="#414141"/>
</g>
</g>
<defs>
<clipPath id="clip0_436_869">
<rect width="16" height="16" fill="white"/>
</clipPath>
</defs>
</svg>
