<svg width="16" height="16" viewBox="0 0 16 16" fill="none" xmlns="http://www.w3.org/2000/svg">
<g id="Edit">
<g id="Layer 42">
<path id="Vector" d="M1.00011 14.4998C0.929549 14.5002 0.859701 14.4857 0.795152 14.4572C0.730604 14.4287 0.672817 14.3869 0.62559 14.3344C0.578363 14.282 0.542766 14.2202 0.521138 14.153C0.499511 14.0859 0.492343 14.0149 0.500106 13.9448L0.885106 10.4448C0.898811 10.3329 0.949907 10.2289 1.03011 10.1498L9.21011 1.96976C9.35872 1.82085 9.53525 1.70271 9.72958 1.6221C9.9239 1.54149 10.1322 1.5 10.3426 1.5C10.553 1.5 10.7613 1.54149 10.9556 1.6221C11.15 1.70271 11.3265 1.82085 11.4751 1.96976L13.0301 3.52476C13.179 3.67338 13.2972 3.8499 13.3778 4.04423C13.4584 4.23856 13.4999 4.44688 13.4999 4.65726C13.4999 4.86764 13.4584 5.07596 13.3778 5.27029C13.2972 5.46462 13.179 5.64114 13.0301 5.78976L4.85511 13.9648C4.77592 14.045 4.67197 14.0961 4.56011 14.1098L1.06011 14.4948L1.00011 14.4998ZM1.86511 10.7248L1.56511 13.4348L4.27511 13.1348L12.3251 5.08476C12.381 5.02902 12.4254 4.96278 12.4557 4.88985C12.486 4.81692 12.5016 4.73873 12.5016 4.65976C12.5016 4.58079 12.486 4.5026 12.4557 4.42967C12.4254 4.35674 12.381 4.2905 12.3251 4.23476L10.7651 2.67476C10.7094 2.61882 10.6431 2.57444 10.5702 2.54416C10.4973 2.51387 10.4191 2.49829 10.3401 2.49829C10.2611 2.49829 10.1829 2.51387 10.11 2.54416C10.0371 2.57444 9.97085 2.61882 9.91511 2.67476L1.86511 10.7248Z" fill="#414141"/>
<path id="Vector_2" d="M11.4996 7.10484C11.4338 7.10522 11.3686 7.09261 11.3077 7.06772C11.2468 7.04284 11.1913 7.00618 11.1446 6.95984L8.03962 3.84484C7.993 3.79822 7.95602 3.74287 7.93079 3.68196C7.90556 3.62105 7.89258 3.55577 7.89258 3.48984C7.89258 3.42391 7.90556 3.35863 7.93079 3.29771C7.95602 3.2368 7.993 3.18146 8.03962 3.13484C8.08624 3.08822 8.14159 3.05124 8.2025 3.02601C8.26341 3.00078 8.32869 2.98779 8.39462 2.98779C8.46055 2.98779 8.52584 3.00078 8.58675 3.02601C8.64766 3.05124 8.703 3.08822 8.74962 3.13484L11.8646 6.24984C11.9115 6.29632 11.9487 6.35162 11.9741 6.41255C11.9995 6.47348 12.0125 6.53883 12.0125 6.60484C12.0125 6.67084 11.9995 6.7362 11.9741 6.79713C11.9487 6.85806 11.9115 6.91336 11.8646 6.95984C11.8167 7.00739 11.7597 7.04476 11.697 7.06968C11.6342 7.0946 11.5671 7.10656 11.4996 7.10484Z" fill="#414141"/>
<path id="Vector_3" d="M8.04301 6.25142L4.15039 10.144L4.8575 10.8511L8.75012 6.95853L8.04301 6.25142Z" fill="#414141"/>
</g>
</g>
</svg>
