<?xml version="1.0" encoding="utf-8"?>
<!-- Generator: Adobe Illustrator 26.0.1, SVG Export Plug-In . SVG Version: 6.00 Build 0)  -->
<svg version="1.1" id="Capa_1" xmlns="http://www.w3.org/2000/svg" xmlns:xlink="http://www.w3.org/1999/xlink" x="0px" y="0px"
	 viewBox="0 0 64 64" style="enable-background:new 0 0 64 64;" xml:space="preserve">
<g id="Home">
	<path id="Vector" d="M61.9,29.9c-0.4,0-0.9-0.1-1.2-0.4L32,9.1L3.4,29.5c-0.5,0.3-1,0.4-1.5,0.3c-0.5-0.1-1-0.4-1.3-0.8
		c-0.3-0.4-0.4-1-0.4-1.5c0.1-0.5,0.3-1,0.7-1.4L30.8,4.7c0.4-0.3,0.8-0.4,1.2-0.4c0.4,0,0.9,0.1,1.2,0.4l29.9,21.3
		c0.4,0.3,0.6,0.6,0.8,1.1c0.1,0.4,0.1,0.9,0,1.3c-0.1,0.4-0.4,0.8-0.8,1.1C62.8,29.8,62.3,29.9,61.9,29.9z"/>
	<path id="Vector_2" d="M8.6,17.1c-0.6,0-1.1-0.2-1.5-0.6c-0.4-0.4-0.6-0.9-0.6-1.5V6.5c0-0.6,0.2-1.1,0.6-1.5
		C7.4,4.5,8,4.3,8.6,4.3h8.5c0.6,0,1.1,0.2,1.5,0.6c0.4,0.4,0.6,0.9,0.6,1.5S19,7.6,18.6,8c-0.4,0.4-0.9,0.6-1.5,0.6h-6.4V15
		c0,0.6-0.2,1.1-0.6,1.5C9.7,16.9,9.1,17.1,8.6,17.1z"/>
	<path id="Vector_3" d="M51.2,59.8H40.6c-0.6,0-1.1-0.2-1.5-0.6c-0.4-0.4-0.6-0.9-0.6-1.5V42.7H25.6v14.9c0,0.6-0.2,1.1-0.6,1.5
		c-0.4,0.4-0.9,0.6-1.5,0.6H12.8c-1.7,0-3.3-0.7-4.5-1.9c-1.2-1.2-1.9-2.8-1.9-4.5V32c0-0.6,0.2-1.1,0.6-1.5
		c0.4-0.4,0.9-0.6,1.5-0.6s1.1,0.2,1.5,0.6c0.4,0.4,0.6,0.9,0.6,1.5v21.3c0,0.6,0.2,1.1,0.6,1.5c0.4,0.4,0.9,0.6,1.5,0.6h8.5V40.6
		c0-0.6,0.2-1.1,0.6-1.5c0.4-0.4,0.9-0.6,1.5-0.6h17.1c0.6,0,1.1,0.2,1.5,0.6c0.4,0.4,0.6,0.9,0.6,1.5v14.9h8.5
		c0.6,0,1.1-0.2,1.5-0.6c0.4-0.4,0.6-0.9,0.6-1.5V32c0-0.6,0.2-1.1,0.6-1.5s0.9-0.6,1.5-0.6c0.6,0,1.1,0.2,1.5,0.6
		c0.4,0.4,0.6,0.9,0.6,1.5v21.3c0,1.7-0.7,3.3-1.9,4.5C54.5,59.1,52.9,59.8,51.2,59.8z"/>
</g>
</svg>
