<?xml version="1.0" encoding="utf-8"?>
<!-- Generator: Adobe Illustrator 26.0.1, SVG Export Plug-In . SVG Version: 6.00 Build 0)  -->
<svg version="1.1" id="Capa_1" xmlns="http://www.w3.org/2000/svg" xmlns:xlink="http://www.w3.org/1999/xlink" x="0px" y="0px"
	 viewBox="0 0 64 64" style="enable-background:new 0 0 64 64;" xml:space="preserve">
<g>
	<g id="Orders">
		<g id="Layer_2">
			<g id="Group_46">
				<path id="Vector" d="M34.5,61.2c-0.7,0-1.3-0.3-1.7-0.7C32.3,60,32,59.4,32,58.7c0-0.7,0.3-1.3,0.7-1.7c0.5-0.5,1.1-0.7,1.7-0.7
					c5.5,0,10.9-1.8,15.2-5.3c4.3-3.4,7.4-8.2,8.7-13.5c1.3-5.4,0.8-11-1.5-16c-2.3-5-6.2-9.1-11.1-11.7S35.3,6.4,29.9,7.5
					c-5.4,1-10.3,3.8-14,8c-3.6,4.1-5.8,9.4-6.1,14.9c-0.3,5.5,1.3,10.9,4.4,15.5c0.4,0.5,0.5,1.2,0.4,1.8c-0.1,0.6-0.5,1.2-1,1.6
					c-0.3,0.2-0.6,0.3-0.9,0.4c-0.3,0.1-0.6,0.1-1,0c-0.3-0.1-0.6-0.2-0.9-0.3c-0.3-0.2-0.5-0.4-0.7-0.7C6.5,43.2,4.6,36.7,5,30.1
					c0.4-6.6,2.9-12.9,7.3-17.9c4.4-5,10.3-8.4,16.8-9.6c6.5-1.2,13.2-0.2,19.1,2.8c5.9,3,10.5,8,13.3,14c2.7,6,3.4,12.8,1.8,19.2
					c-1.6,6.4-5.2,12.1-10.5,16.2C47.5,59,41.1,61.2,34.5,61.2z"/>
				<path id="Vector_2" d="M14.8,51.3H2.5c-0.7,0-1.3-0.3-1.7-0.7C0.3,50.2,0,49.5,0,48.9s0.3-1.3,0.7-1.7c0.5-0.5,1.1-0.7,1.7-0.7
					h9.8v-9.8c0-0.7,0.3-1.3,0.7-1.7c0.5-0.5,1.1-0.7,1.7-0.7s1.3,0.3,1.7,0.7c0.5,0.5,0.7,1.1,0.7,1.7v12.3c0,0.7-0.3,1.3-0.7,1.7
					C16,51.1,15.4,51.3,14.8,51.3z"/>
			</g>
			<path id="Vector_3" d="M27.1,41.5c-0.3,0-0.6-0.1-0.9-0.2c-0.3-0.1-0.6-0.3-0.8-0.5c-0.2-0.2-0.4-0.5-0.5-0.8
				c-0.1-0.3-0.2-0.6-0.2-0.9s0.1-0.6,0.2-0.9c0.1-0.3,0.3-0.6,0.5-0.8l6.7-6.6V19.3c0-0.7,0.3-1.3,0.7-1.7c0.5-0.5,1.1-0.7,1.7-0.7
				c0.7,0,1.3,0.3,1.7,0.7c0.5,0.5,0.7,1.1,0.7,1.7v12.3c0,0.3-0.1,0.6-0.2,0.9c-0.1,0.3-0.3,0.6-0.5,0.8l-7.4,7.4
				c-0.2,0.2-0.5,0.4-0.8,0.5C27.7,41.4,27.4,41.5,27.1,41.5z"/>
		</g>
	</g>
</g>
</svg>
