<svg width="16" height="16" viewBox="0 0 16 16" fill="none" xmlns="http://www.w3.org/2000/svg">
<g id="Coin" clip-path="url(#clip0_436_880)">
<g id="Layer 2">
<path id="Vector" d="M12 14.5H4C3.33696 14.5 2.70107 14.2366 2.23223 13.7678C1.76339 13.2989 1.5 12.663 1.5 12V5C1.5 4.86739 1.55268 4.74021 1.64645 4.64645C1.74021 4.55268 1.86739 4.5 2 4.5H12C12.663 4.5 13.2989 4.76339 13.7678 5.23223C14.2366 5.70107 14.5 6.33696 14.5 7V12C14.5 12.663 14.2366 13.2989 13.7678 13.7678C13.2989 14.2366 12.663 14.5 12 14.5ZM2.5 5.5V12C2.5 12.3978 2.65804 12.7794 2.93934 13.0607C3.22064 13.342 3.60218 13.5 4 13.5H12C12.3978 13.5 12.7794 13.342 13.0607 13.0607C13.342 12.7794 13.5 12.3978 13.5 12V7C13.5 6.60218 13.342 6.22064 13.0607 5.93934C12.7794 5.65804 12.3978 5.5 12 5.5H2.5Z" fill="black"/>
<path id="Vector_2" d="M13.0001 5.50011C12.8674 5.50011 12.7403 5.44743 12.6465 5.35366C12.5527 5.25989 12.5001 5.13271 12.5001 5.00011V3.62511C12.5096 3.44995 12.4795 3.27489 12.412 3.11299C12.3445 2.9511 12.2413 2.80654 12.1101 2.69011C11.9922 2.60178 11.8557 2.54147 11.711 2.51375C11.5663 2.48603 11.4172 2.49162 11.2751 2.53011L2.89006 4.43511C2.77726 4.46051 2.67676 4.52421 2.60565 4.61537C2.53455 4.70654 2.49723 4.81952 2.50006 4.93511C2.50006 5.06771 2.44738 5.19489 2.35361 5.28866C2.25984 5.38243 2.13266 5.43511 2.00006 5.43511C1.86745 5.43511 1.74027 5.38243 1.6465 5.28866C1.55273 5.19489 1.50006 5.06771 1.50006 4.93511C1.49712 4.5933 1.61102 4.26075 1.82288 3.99251C2.03474 3.72427 2.33187 3.53643 2.66506 3.46011L11.0551 1.55511C11.3436 1.48214 11.645 1.4762 11.9362 1.53774C12.2274 1.59927 12.5007 1.72665 12.7351 1.91011C12.9829 2.12043 13.1803 2.38373 13.3127 2.68057C13.4451 2.97741 13.5091 3.3002 13.5001 3.62511V5.00011C13.5001 5.13271 13.4474 5.25989 13.3536 5.35366C13.2598 5.44743 13.1327 5.50011 13.0001 5.50011Z" fill="black"/>
<path id="Vector_3" d="M14 11.5H10.5C9.96957 11.5 9.46086 11.2893 9.08579 10.9142C8.71071 10.5391 8.5 10.0304 8.5 9.5C8.5 8.96957 8.71071 8.46086 9.08579 8.08579C9.46086 7.71071 9.96957 7.5 10.5 7.5H14C14.1326 7.5 14.2598 7.55268 14.3536 7.64645C14.4473 7.74021 14.5 7.86739 14.5 8V11C14.5 11.1326 14.4473 11.2598 14.3536 11.3536C14.2598 11.4473 14.1326 11.5 14 11.5ZM10.5 8.5C10.2348 8.5 9.98043 8.60536 9.79289 8.79289C9.60536 8.98043 9.5 9.23478 9.5 9.5C9.5 9.76522 9.60536 10.0196 9.79289 10.2071C9.98043 10.3946 10.2348 10.5 10.5 10.5H13.5V8.5H10.5Z" fill="black"/>
</g>
</g>
<defs>
<clipPath id="clip0_436_880">
<rect width="16" height="16" fill="white"/>
</clipPath>
</defs>
</svg>
