<?xml version="1.0" encoding="utf-8"?>
<!-- Generator: Adobe Illustrator 26.0.1, SVG Export Plug-In . SVG Version: 6.00 Build 0)  -->
<svg version="1.1" id="Capa_1" xmlns="http://www.w3.org/2000/svg" xmlns:xlink="http://www.w3.org/1999/xlink" x="0px" y="0px"
	 viewBox="0 0 64 64" style="enable-background:new 0 0 64 64;" xml:space="preserve">
<g id="Profile">
	<g id="about">
		<path id="Vector" d="M32,32c3.2,0,6.3-0.9,8.9-2.7c2.6-1.8,4.7-4.3,5.9-7.2c1.2-2.9,1.5-6.1,0.9-9.2s-2.1-6-4.4-8.2
			c-2.2-2.2-5.1-3.8-8.2-4.4C32-0.3,28.8,0,25.9,1.2c-2.9,1.2-5.4,3.3-7.2,5.9C16.9,9.7,16,12.8,16,16c0,4.2,1.7,8.3,4.7,11.3
			C23.7,30.3,27.8,32,32,32z M32,4.6c2.3,0,4.5,0.7,6.3,1.9c1.9,1.3,3.3,3,4.2,5.1c0.9,2.1,1.1,4.4,0.7,6.6
			c-0.4,2.2-1.5,4.3-3.1,5.9c-1.6,1.6-3.6,2.7-5.9,3.1c-2.2,0.4-4.5,0.2-6.6-0.7s-3.9-2.3-5.1-4.2c-1.3-1.9-1.9-4.1-1.9-6.3
			c0-3,1.2-5.9,3.3-8.1C26.1,5.8,29,4.6,32,4.6z"/>
		<path id="Vector_2" d="M34.3,36.6h-4.6c-6.7,0-13.1,2.6-17.8,7.4S4.6,55,4.6,61.7c0,0.6,0.2,1.2,0.7,1.6c0.4,0.4,1,0.7,1.6,0.7
			h50.3c0.6,0,1.2-0.2,1.6-0.7c0.4-0.4,0.7-1,0.7-1.6c0-6.7-2.6-13.1-7.4-17.8S41,36.6,34.3,36.6z M9.3,59.4c0.6-5,3-9.7,6.7-13
			c3.8-3.4,8.6-5.2,13.7-5.2h4.6c5.1,0,9.9,1.9,13.7,5.2c3.8,3.4,6.2,8,6.7,13H9.3z"/>
	</g>
</g>
</svg>
